<svg width="240" height="240" viewBox="0 0 240 240" fill="none" xmlns="http://www.w3.org/2000/svg">
  <circle cx="120" cy="120" r="115" fill="#F6EEE5" stroke="#A18A78" stroke-width="10"/>
  <ellipse cx="79" cy="79" rx="20" ry="25" fill="#6F4E37"/>
  <ellipse cx="121" cy="67" rx="20" ry="25" fill="#6F4E37"/>
  <ellipse cx="163" cy="79" rx="20" ry="25" fill="#6F4E37"/>
  <path d="M118.5 177C168.6 146.6 183 114.8 183 94.5C183 71.4 164.4 54 141.7 54C130.4 54 121.9 58.8 114.2 68.1C106.5 58.8 98 54 86.7 54C64 54 45.4 71.4 45.4 94.5C45.4 114.8 59.8 146.6 109.9 177L114.2 179.6L118.5 177Z" fill="#8F6C55"/>
  <path d="M114.2 164.6L110.8 162.5C70.9 138.4 58.4 113.2 58.4 95.4C58.4 79 71.7 67 87.5 67C95.8 67 102.9 70.3 109.5 79L114.2 85.1L118.9 79C125.5 70.3 132.6 67 140.9 67C156.7 67 170 79 170 95.4C170 113.2 157.5 138.4 117.6 162.5L114.2 164.6Z" fill="#FDFCF9"/>
</svg>
